<?xml version="1.0" encoding="UTF-8" standalone="no"?>
<svg
   xmlns:dc="http://purl.org/dc/elements/1.1/"
   xmlns:cc="http://creativecommons.org/ns#"
   xmlns:rdf="http://www.w3.org/1999/02/22-rdf-syntax-ns#"
   xmlns:svg="http://www.w3.org/2000/svg"
   xmlns="http://www.w3.org/2000/svg"
   xmlns:sodipodi="http://sodipodi.sourceforge.net/DTD/sodipodi-0.dtd"
   xmlns:inkscape="http://www.inkscape.org/namespaces/inkscape"
   height="1792"
   viewBox="0 0 1792 1792"
   width="1792"
   id="svg3773"
   version="1.1"
   inkscape:version="0.48.4 r9939"
   sodipodi:docname="o-sun.svg">
  <metadata
     id="metadata3781">
    <rdf:RDF>
      <cc:Work
         rdf:about="">
        <dc:format>image/svg+xml</dc:format>
        <dc:type
           rdf:resource="http://purl.org/dc/dcmitype/StillImage" />
        <dc:title></dc:title>
      </cc:Work>
    </rdf:RDF>
  </metadata>
  <defs
     id="defs3779" />
  <sodipodi:namedview
     pagecolor="#ffffff"
     bordercolor="#666666"
     borderopacity="1"
     objecttolerance="10"
     gridtolerance="10"
     guidetolerance="10"
     inkscape:pageopacity="0"
     inkscape:pageshadow="2"
     inkscape:window-width="640"
     inkscape:window-height="480"
     id="namedview3777"
     showgrid="false"
     inkscape:zoom="0.13169643"
     inkscape:cx="896"
     inkscape:cy="896"
     inkscape:window-x="0"
     inkscape:window-y="0"
     inkscape:window-maximized="0"
     inkscape:current-layer="svg3773" />
  <path
     d="M1472 896q0-117-45.5-223.5t-123-184-184-123-223.5-45.5-223.5 45.5-184 123-123 184-45.5 223.5 45.5 223.5 123 184 184 123 223.5 45.5 223.5-45.5 184-123 123-184 45.5-223.5zm276 277q-4 15-20 20l-292 96v306q0 16-13 26-15 10-29 4l-292-94-180 248q-10 13-26 13t-26-13l-180-248-292 94q-14 6-29-4-13-10-13-26v-306l-292-96q-16-5-20-20-5-17 4-29l180-248-180-248q-9-13-4-29 4-15 20-20l292-96v-306q0-16 13-26 15-10 29-4l292 94 180-248q9-12 26-12t26 12l180 248 292-94q14-6 29 4 13 10 13 26v306l292 96q16 5 20 20 5 16-4 29l-180 248 180 248q9 12 4 29z"
     id="path3775" />
</svg>
